<svg width="45" height="46" viewBox="0 0 45 46" fill="none" xmlns="http://www.w3.org/2000/svg">
<g clip-path="url(#clip0)">
<rect y="0.409454" width="45" height="45" rx="22.5" fill="white"/>
<path d="M23.1473 38.1811C20.6513 38.1811 18.3953 37.6051 16.3793 36.4531C14.3953 35.3011 12.8113 33.7331 11.6273 31.7491C10.4753 29.7331 9.88325 27.4771 9.85125 24.9811V2.32507C9.85125 1.74907 10.0113 1.30107 10.3313 0.981069C10.6833 0.629069 11.1473 0.45307 11.7233 0.45307C12.2673 0.45307 12.6993 0.629069 13.0193 0.981069C13.3713 1.30107 13.5473 1.74907 13.5473 2.32507V16.4371C14.6033 14.9331 15.9953 13.7331 17.7233 12.8371C19.4833 11.9091 21.4353 11.4451 23.5793 11.4451C26.0433 11.4451 28.2513 12.0371 30.2032 13.2211C32.1553 14.3731 33.6913 15.9571 34.8113 17.9731C35.9633 19.9891 36.5393 22.2611 36.5393 24.7891C36.5393 27.3491 35.9473 29.6371 34.7633 31.6531C33.6113 33.6691 32.0273 35.2691 30.0113 36.4531C27.9953 37.6051 25.7073 38.1811 23.1473 38.1811ZM23.1473 34.8211C25.0033 34.8211 26.6673 34.3891 28.1393 33.5251C29.6113 32.6291 30.7633 31.4291 31.5953 29.9251C32.4593 28.4211 32.8913 26.7091 32.8913 24.7891C32.8913 22.9011 32.4593 21.2051 31.5953 19.7011C30.7633 18.1651 29.6113 16.9651 28.1393 16.1011C26.6673 15.2371 25.0033 14.8051 23.1473 14.8051C21.3233 14.8051 19.6753 15.2371 18.2032 16.1011C16.7313 16.9651 15.5793 18.1651 14.7473 19.7011C13.9153 21.2051 13.4993 22.9011 13.4993 24.7891C13.4993 26.7091 13.9153 28.4211 14.7473 29.9251C15.5793 31.4291 16.7313 32.6291 18.2032 33.5251C19.6753 34.3891 21.3233 34.8211 23.1473 34.8211Z" fill="black"/>
</g>
<defs>
<clipPath id="clip0">
<rect y="0.409454" width="45" height="45" rx="22.5" fill="white"/>
</clipPath>
</defs>
</svg>
