<svg width="26" height="27" viewBox="0 0 26 27" fill="none" xmlns="http://www.w3.org/2000/svg">
<path d="M24.1916 21.6522C23.5736 20.1883 22.6768 18.8586 21.5511 17.7372C20.4288 16.6125 19.0993 15.7159 17.6361 15.0966C17.623 15.0901 17.6099 15.0868 17.5968 15.0803C19.6378 13.606 20.9646 11.2046 20.9646 8.49524C20.9646 4.00693 17.3281 0.370422 12.8398 0.370422C8.35153 0.370422 4.71502 4.00693 4.71502 8.49524C4.71502 11.2046 6.04185 13.606 8.08288 15.0835C8.06978 15.0901 8.05668 15.0934 8.04357 15.0999C6.57586 15.7191 5.25886 16.6069 4.12859 17.7405C3.00392 18.8628 2.10723 20.1923 1.48803 21.6555C0.87972 23.088 0.551648 24.6238 0.521566 26.1798C0.520692 26.2148 0.526825 26.2496 0.539604 26.2821C0.552383 26.3147 0.57155 26.3444 0.595975 26.3694C0.6204 26.3944 0.649589 26.4143 0.681822 26.4279C0.714055 26.4415 0.74868 26.4485 0.783657 26.4485H2.74934C2.89349 26.4485 3.00815 26.3338 3.01143 26.1929C3.07695 23.6637 4.09255 21.2951 5.88787 19.4998C7.74544 17.6422 10.2124 16.6201 12.8398 16.6201C15.4673 16.6201 17.9342 17.6422 19.7918 19.4998C21.5871 21.2951 22.6027 23.6637 22.6682 26.1929C22.6715 26.3371 22.7862 26.4485 22.9303 26.4485H24.896C24.931 26.4485 24.9656 26.4415 24.9978 26.4279C25.0301 26.4143 25.0593 26.3944 25.0837 26.3694C25.1081 26.3444 25.1273 26.3147 25.1401 26.2821C25.1528 26.2496 25.159 26.2148 25.1581 26.1798C25.1253 24.6138 24.801 23.0904 24.1916 21.6522V21.6522ZM12.8398 14.1302C11.3361 14.1302 9.9208 13.5438 8.85605 12.479C7.79131 11.4143 7.20488 9.99898 7.20488 8.49524C7.20488 6.99149 7.79131 5.5762 8.85605 4.51146C9.9208 3.44671 11.3361 2.86028 12.8398 2.86028C14.3436 2.86028 15.7589 3.44671 16.8236 4.51146C17.8884 5.5762 18.4748 6.99149 18.4748 8.49524C18.4748 9.99898 17.8884 11.4143 16.8236 12.479C15.7589 13.5438 14.3436 14.1302 12.8398 14.1302Z" fill="white"/>
</svg>
